<svg width="220" height="24" viewBox="0 0 220 24" fill="none" xmlns="http://www.w3.org/2000/svg">
<path d="M7.3182 22.1891C7.66637 22.2234 8.01754 22.1687 8.33882 22.0303C8.66009 21.8918 8.94094 21.674 9.15507 21.3973C9.47575 20.6954 9.61804 19.9251 9.56928 19.155V18.1305L9.60294 14.3718L3.84206 5.30897C3.02607 4.18421 2.41878 2.92203 2.0491 1.58254L0 1.6484V0.197933H8.54181V1.28542C6.82056 1.28542 5.95994 1.76891 5.95994 2.73589C6.03386 3.51361 6.32047 4.25597 6.78836 4.88158L7.81291 6.49159C9.22484 8.77779 10.4494 10.6352 11.4866 12.0637H11.5525C12.3243 10.5473 13.505 8.30309 15.0945 5.33092L15.7898 4.04438C16.2238 3.15241 16.7565 2.31192 17.3778 1.53863L14.7637 1.63816V0.197933H21.5155V1.28542C20.5524 1.32075 19.6325 1.6944 18.9176 2.3407C18.001 3.28305 17.2361 4.3619 16.6504 5.53876L12.4805 13.3853C12.458 14.4587 12.4414 15.6018 12.4307 16.8146C12.42 18.0275 12.4234 18.874 12.4409 19.3541C12.4535 20.2236 12.4203 21.0933 12.3414 21.9593L15.0887 21.8276V23.2781H7.3182V22.1891ZM30.0559 23.7991C29.7991 23.8013 29.5448 23.7479 29.3106 23.6425C29.0764 23.5372 28.8678 23.3824 28.6991 23.1888C28.3236 22.7809 28.122 22.2427 28.137 21.6886C28.1267 21.1261 28.3368 20.5819 28.7225 20.1722C28.8928 19.9752 29.1036 19.8173 29.3405 19.7092C29.5775 19.6011 29.8349 19.5453 30.0954 19.5458C30.3565 19.5408 30.6154 19.5945 30.8531 19.7029C31.0907 19.8113 31.3009 19.9717 31.4683 20.1722C31.833 20.5919 32.0277 21.1327 32.0142 21.6886C32.0204 21.9649 31.9718 22.2397 31.8713 22.4972C31.7708 22.7546 31.6204 22.9897 31.4288 23.1888C31.2565 23.3831 31.0448 23.5385 30.8079 23.6448C30.5709 23.751 30.3141 23.8056 30.0544 23.805L30.0559 23.7991ZM44.9162 22.1891C45.2644 22.2234 45.6155 22.1687 45.9368 22.0303C46.2581 21.8918 46.5389 21.674 46.7531 21.3973C47.0737 20.6954 47.216 19.9251 47.1673 19.155V18.1305L47.2009 1.41422L43.7921 1.44788C43.2268 1.39691 42.658 1.49671 42.1438 1.73711C41.6296 1.9775 41.1883 2.34991 40.8648 2.81638C40.1835 4.15481 39.8799 5.65363 39.9867 7.15169H38.7616L38.9606 0.195007H58.2529L58.4519 7.15169H57.1947C57.208 6.03343 57.0686 4.91859 56.7805 3.83801C56.5805 3.09019 56.1234 2.43673 55.4895 1.99236C54.7017 1.5396 53.7986 1.32743 52.8916 1.38202H50.077L50.0433 19.3511C50.0559 20.2207 50.0226 21.0903 49.9438 21.9564L52.6911 21.8247V23.2752H44.9147L44.9162 22.1891Z" fill="#D0D0D0"/>
<path d="M74.6603 20.5821C74.7968 20.5955 74.9345 20.5791 75.0639 20.5338C75.1934 20.4886 75.3114 20.4156 75.4097 20.3201C75.5639 20.1368 75.6556 19.9092 75.6717 19.6702C75.6961 19.4116 75.7141 18.9813 75.7258 18.3793L75.7624 9.66037C75.7548 9.26877 75.7788 8.8772 75.8342 8.48946L74.552 8.56118V7.80301C75.0428 7.82384 75.5344 7.78451 76.0156 7.68592C76.2601 7.61933 76.4836 7.49194 76.6655 7.31562H77.207C77.2549 7.90108 77.2788 8.226 77.2788 8.2904C77.6611 7.95222 78.1014 7.68594 78.5785 7.50443C79.0552 7.31331 79.5637 7.21399 80.0772 7.2117C80.7715 7.2074 81.4531 7.39808 82.0444 7.76203C82.6613 8.14525 83.1634 8.68781 83.4978 9.33252C83.876 10.0594 84.0653 10.8698 84.0481 11.689C84.0653 12.6156 83.8478 13.5314 83.4158 14.3513C83.0247 15.0957 82.4422 15.7222 81.7282 16.1663C81.0437 16.5939 80.2521 16.8192 79.445 16.8161C78.6801 16.8344 77.9267 16.6272 77.2788 16.2204V19.2062C77.2875 19.6168 77.2635 20.0275 77.207 20.4342L78.3443 20.3801V21.1207H74.6603V20.5821ZM79.4025 16.0828C79.9402 16.0926 80.463 15.9063 80.8735 15.5588C81.3191 15.1649 81.6524 14.6599 81.8395 14.0952C82.0776 13.4109 82.1935 12.6901 82.182 11.9656C82.2126 11.0009 81.9717 10.047 81.4867 9.2125C81.2781 8.85363 80.9752 8.55873 80.6109 8.3598C80.2466 8.16087 79.8348 8.0655 79.4201 8.08403C79.0171 8.08666 78.6208 8.18711 78.2653 8.37676C77.9025 8.56153 77.5731 8.80538 77.2905 9.09833C77.3022 9.18225 77.308 9.54914 77.308 10.199L77.2949 15.3788C77.8981 15.8441 78.6407 16.0922 79.4025 16.0828ZM89.0245 15.9745C89.1622 15.9873 89.3011 15.9706 89.4319 15.9254C89.5626 15.8802 89.6822 15.8076 89.7826 15.7125C89.946 15.5224 90.0439 15.2848 90.0622 15.0349C90.0924 14.7577 90.1076 14.3367 90.1076 13.7717V5.23286C90.1045 4.84186 90.1226 4.45099 90.1617 4.06195L88.8796 4.13367V3.3755C89.3975 3.39483 89.9158 3.35258 90.4237 3.24963C90.6868 3.18788 90.9313 3.0639 91.1365 2.88811H91.6605V8.39432C92.0908 8.03969 92.5712 7.75067 93.0861 7.53663C93.5699 7.32394 94.0915 7.21046 94.62 7.20292C95.0474 7.16604 95.4774 7.23578 95.8713 7.40591C96.2652 7.57603 96.6107 7.84122 96.8769 8.1777C97.4194 9.10704 97.6707 10.1777 97.5985 11.2513L97.616 14.6089C97.6248 15.0195 97.6008 15.4302 97.5443 15.8369L98.6816 15.7828V16.5234H95.0049V15.9818C95.1414 15.9953 95.2791 15.9788 95.4085 15.9336C95.538 15.8883 95.656 15.8154 95.7543 15.7198C95.9109 15.5304 96.0055 15.2974 96.0251 15.0524C96.0553 14.7812 96.0704 14.3567 96.0704 13.7791V11.2455C96.1237 10.4421 95.9551 9.63961 95.5831 8.92562C95.4194 8.67227 95.1907 8.46747 94.9209 8.33257C94.6511 8.19768 94.3501 8.13762 94.0492 8.15868C93.5884 8.1622 93.1345 8.27029 92.7216 8.47482C92.3141 8.66087 91.9531 8.93537 91.6649 9.27836V14.6045C91.6692 15.0157 91.6388 15.4265 91.5741 15.8325L92.7114 15.7784V16.519H89.0245V15.9745ZM108.106 16.8044C107.307 16.8127 106.519 16.6108 105.823 16.2189C105.136 15.8329 104.568 15.2665 104.179 14.5811C103.77 13.8608 103.561 13.0441 103.575 12.2159C103.562 11.3288 103.767 10.4521 104.17 9.66183C104.543 8.92469 105.107 8.30137 105.804 7.85717C106.491 7.4192 107.291 7.19038 108.106 7.19853C108.91 7.19173 109.702 7.40046 110.398 7.80301C111.087 8.19722 111.657 8.76884 112.05 9.45839C112.456 10.1667 112.665 10.9708 112.655 11.787C112.664 12.6664 112.456 13.5344 112.05 14.3147C111.673 15.0566 111.107 15.6858 110.408 16.1384C109.723 16.5812 108.922 16.8128 108.106 16.8044ZM108.252 16.0828C108.645 16.104 109.036 16.0135 109.379 15.8218C109.723 15.6301 110.005 15.3451 110.193 14.9997C110.632 14.173 110.846 13.2451 110.812 12.3096C110.842 11.2289 110.61 10.1572 110.135 9.18615C109.962 8.79302 109.677 8.45975 109.316 8.22843C108.954 7.99711 108.532 7.8781 108.103 7.88644C107.699 7.86851 107.298 7.96163 106.943 8.15567C106.588 8.34972 106.293 8.63727 106.091 8.9871C105.616 9.80867 105.381 10.7467 105.413 11.6948C105.408 12.4251 105.516 13.1517 105.732 13.8493C105.91 14.4584 106.239 15.0124 106.689 15.4593C106.895 15.6618 107.139 15.8212 107.407 15.9282C107.675 16.0353 107.962 16.0878 108.251 16.0828H108.252ZM121.195 16.8044C119.546 16.8044 118.728 15.6974 118.741 13.4834L118.777 8.24796L117.387 8.26552V7.48979C117.676 7.48161 117.96 7.40636 118.215 7.26997C118.47 7.13357 118.69 6.93977 118.858 6.70382C119.265 6.18582 119.568 5.59454 119.752 4.96209H120.365V7.48979H123.4V8.1938L120.367 8.2304C120.355 10.0717 120.346 11.3475 120.339 12.0578C120.332 12.7682 120.328 13.1653 120.326 13.2492C120.29 13.8982 120.395 14.5473 120.633 15.152C120.727 15.3515 120.879 15.518 121.069 15.6293C121.259 15.7406 121.479 15.7916 121.699 15.7755C122.03 15.7687 122.353 15.6671 122.628 15.4827C122.949 15.2769 123.222 15.0061 123.432 14.688L123.919 15.0846C123.581 15.6564 123.103 16.132 122.529 16.4663C122.115 16.6796 121.66 16.7952 121.195 16.8044ZM132.875 16.8044C132.076 16.8127 131.289 16.6108 130.592 16.2189C129.905 15.8331 129.336 15.2667 128.947 14.5811C128.538 13.8608 128.329 13.0441 128.342 12.2159C128.33 11.3288 128.535 10.4521 128.938 9.66183C129.311 8.92577 129.875 8.3035 130.571 7.86009C131.259 7.42213 132.059 7.19331 132.874 7.20146C133.678 7.19466 134.469 7.40339 135.166 7.80594C135.854 8.19934 136.425 8.76992 136.818 9.45839C137.224 10.1667 137.433 10.9708 137.423 11.787C137.431 12.6664 137.224 13.5344 136.818 14.3147C136.441 15.0566 135.874 15.6858 135.176 16.1384C134.49 16.5812 133.691 16.8128 132.875 16.8044ZM133.022 16.0828C133.414 16.104 133.805 16.0135 134.148 15.8218C134.492 15.6301 134.774 15.3451 134.962 14.9997C135.403 14.1734 135.618 13.2455 135.586 12.3096C135.616 11.2289 135.383 10.1572 134.908 9.18615C134.736 8.79302 134.451 8.45975 134.089 8.22843C133.728 7.99711 133.306 7.8781 132.877 7.88644C132.472 7.86866 132.071 7.962 131.716 8.1563C131.362 8.35061 131.067 8.63846 130.864 8.98856C130.39 9.81014 130.155 10.7481 130.186 11.6963C130.18 12.4258 130.286 13.1519 130.5 13.8493C130.677 14.4584 131.007 15.0124 131.457 15.4593C131.663 15.6618 131.907 15.8212 132.175 15.9282C132.443 16.0353 132.73 16.0878 133.019 16.0828H133.022ZM154.631 16.8044C154.104 16.8104 153.581 16.7343 153.078 16.579C152.65 16.4478 152.243 16.2561 151.869 16.0096L151.941 16.6419H151.179L151.071 13.5376H151.63C151.647 14.005 151.787 14.4596 152.037 14.8548C152.28 15.2363 152.615 15.55 153.012 15.7667C153.406 15.9868 153.851 16.1017 154.303 16.1004C154.789 16.109 155.268 15.9807 155.685 15.7301C155.872 15.6263 156.028 15.4728 156.135 15.2865C156.242 15.1001 156.295 14.888 156.289 14.6733C156.3 14.3639 156.196 14.0613 155.996 13.8244C155.789 13.5885 155.537 13.3951 155.256 13.2551C154.963 13.1048 154.551 12.9272 154.019 12.7223C153.493 12.5311 152.98 12.3047 152.485 12.0446C152.098 11.8318 151.759 11.5395 151.493 11.1869C151.205 10.7892 151.058 10.3063 151.077 9.81552C151.082 9.40123 151.182 8.99366 151.37 8.62411C151.589 8.19883 151.928 7.84716 152.344 7.61274C152.903 7.31114 153.534 7.16744 154.168 7.19706C154.557 7.19942 154.943 7.2601 155.314 7.37709C155.714 7.50208 156.085 7.70449 156.406 7.9728L156.369 7.28635H157.128V10.4449H156.55C156.528 9.78824 156.304 9.15425 155.908 8.62997C155.716 8.37781 155.465 8.17625 155.177 8.04265C154.889 7.90905 154.573 7.8474 154.256 7.86302C153.791 7.83828 153.332 7.98282 152.965 8.26991C152.817 8.38399 152.697 8.53028 152.614 8.69766C152.531 8.86504 152.488 9.04912 152.486 9.23592C152.479 9.55776 152.592 9.87083 152.803 10.1141C153.026 10.3642 153.292 10.572 153.589 10.7274C153.998 10.9389 154.42 11.1256 154.852 11.2865C155.371 11.4895 155.878 11.7246 156.368 11.9905C156.751 12.2057 157.086 12.4977 157.352 12.8482C157.628 13.2206 157.772 13.6753 157.758 14.1391C157.777 14.662 157.622 15.1763 157.319 15.6028C157.024 16.001 156.624 16.3104 156.165 16.497C155.678 16.7022 155.155 16.8067 154.626 16.8044H154.631ZM166.293 16.8044C164.644 16.8044 163.826 15.6974 163.838 13.4834L163.875 8.24796L162.485 8.26552V7.48979C162.774 7.48161 163.057 7.40636 163.313 7.26997C163.568 7.13357 163.788 6.93977 163.956 6.70382C164.362 6.18582 164.666 5.59454 164.85 4.96209H165.463V7.48979H168.496V8.1938L165.463 8.2304C165.451 10.0717 165.443 11.3475 165.437 12.0578C165.431 12.7682 165.428 13.1653 165.428 13.2492C165.392 13.8982 165.497 14.5473 165.735 15.152C165.829 15.3515 165.981 15.518 166.171 15.6293C166.361 15.7406 166.581 15.7916 166.801 15.7755C167.132 15.7687 167.455 15.6671 167.73 15.4827C168.051 15.2769 168.324 15.0061 168.534 14.688L169.021 15.0846C168.683 15.6564 168.205 16.132 167.631 16.4663C167.214 16.6813 166.753 16.797 166.284 16.8044H166.293ZM177.305 16.8044C176.888 16.8412 176.468 16.781 176.078 16.6287C175.688 16.4764 175.339 16.2359 175.057 15.9262C174.492 15.0128 174.238 13.9403 174.334 12.8701V9.65013C174.327 9.25853 174.351 8.86695 174.406 8.47921L173.16 8.53337V7.79277H173.719C174.079 7.80732 174.439 7.76483 174.785 7.66689C175.012 7.59028 175.221 7.46716 175.398 7.30537H175.922V12.8116C175.867 13.6126 176.018 14.4143 176.361 15.1402C176.515 15.3901 176.736 15.592 176.998 15.7234C177.261 15.8547 177.555 15.9103 177.847 15.8838C178.312 15.878 178.766 15.7405 179.155 15.4871C179.569 15.2353 179.923 14.8968 180.193 14.4948V9.85504C180.186 9.39618 180.216 8.9375 180.284 8.48361L178.984 8.53776V7.79716H179.543C179.903 7.81171 180.263 7.76923 180.609 7.67128C180.836 7.59467 181.045 7.47155 181.222 7.30977H181.746L181.729 14.1333C181.733 14.6997 181.708 15.2659 181.652 15.8296L182.952 15.7579V16.5161H180.37C180.31 16.1433 180.268 15.7823 180.244 15.433C179.839 15.8359 179.369 16.1683 178.854 16.4165C178.373 16.6633 177.842 16.796 177.301 16.8044H177.305ZM191.747 16.8044C191.039 16.8153 190.343 16.6211 189.743 16.2453C189.14 15.857 188.658 15.3067 188.353 14.6572C188.002 13.9066 187.829 13.0852 187.848 12.2569C187.834 11.355 188.038 10.4631 188.444 9.65744C188.815 8.91321 189.385 8.28684 190.092 7.84839C190.812 7.41076 191.641 7.18548 192.483 7.19853C192.87 7.19811 193.255 7.2473 193.629 7.34489C193.963 7.42627 194.287 7.54457 194.595 7.69763V5.22408C194.592 4.83308 194.61 4.44221 194.65 4.05317L193.367 4.12488V3.36672C193.879 3.38552 194.391 3.34327 194.893 3.24085C195.156 3.1791 195.4 3.05512 195.605 2.87933H196.129V14.5884C196.128 14.9988 196.104 15.4087 196.058 15.8164L197.34 15.7447V16.5029H194.758C194.7 16.1925 194.658 15.8794 194.632 15.5647C194.277 15.9538 193.843 16.2618 193.359 16.4678C192.849 16.6906 192.299 16.8053 191.743 16.8044H191.747ZM192.397 15.9262C192.813 15.9178 193.22 15.8029 193.58 15.5925C193.975 15.3781 194.324 15.0865 194.604 14.7348C194.592 14.5397 194.587 14.2089 194.587 13.7425L194.604 8.54361C194.024 8.11756 193.32 7.89525 192.6 7.91132C192.19 7.90361 191.784 7.99768 191.418 8.18514C191.053 8.37259 190.739 8.6476 190.506 8.98563C189.939 9.81959 189.657 10.8147 189.702 11.8222C189.655 12.8584 189.899 13.8873 190.406 14.7919C190.604 15.1425 190.893 15.4328 191.243 15.6316C191.593 15.8304 191.99 15.9302 192.393 15.9204L192.397 15.9262ZM204.077 5.53437C203.949 5.5333 203.824 5.50446 203.708 5.44986C203.593 5.39527 203.491 5.31622 203.409 5.21822C203.218 5.01586 203.113 4.74715 203.117 4.46884C203.113 4.18778 203.218 3.91607 203.409 3.71067C203.492 3.61081 203.596 3.53006 203.713 3.47397C203.83 3.41788 203.957 3.38778 204.087 3.38575C204.219 3.38364 204.35 3.41091 204.47 3.46559C204.591 3.52026 204.697 3.60098 204.782 3.70189C204.969 3.9131 205.069 4.18707 205.062 4.46884C205.067 4.74749 204.962 5.01688 204.769 5.21822C204.681 5.31536 204.574 5.39272 204.453 5.4452C204.333 5.49768 204.204 5.52408 204.072 5.52266L204.077 5.53437ZM202.29 15.9745C202.426 15.988 202.564 15.9715 202.693 15.9263C202.823 15.881 202.941 15.8081 203.039 15.7125C203.196 15.5231 203.29 15.2901 203.31 15.0451C203.34 14.7738 203.355 14.3494 203.355 13.7717V9.65598C203.358 9.26466 203.382 8.87377 203.427 8.48507L202.145 8.55679V7.79862C202.656 7.81743 203.168 7.77517 203.67 7.67275C203.933 7.611 204.178 7.48702 204.383 7.31123H204.907V14.6045C204.915 15.0151 204.891 15.4258 204.835 15.8325L205.972 15.7784V16.519H202.29V15.9745ZM215.449 16.8044C214.65 16.8127 213.863 16.6108 213.166 16.2189C212.478 15.8333 211.909 15.2669 211.519 14.5811C211.111 13.8608 210.902 13.0441 210.915 12.2159C210.903 11.3297 211.108 10.4541 211.511 9.66476C211.883 8.92762 212.448 8.3043 213.144 7.86009C213.832 7.42213 214.631 7.19331 215.446 7.20146C216.251 7.19466 217.042 7.40339 217.738 7.80594C218.427 8.19934 218.998 8.76992 219.391 9.45839C219.798 10.1663 220.009 10.9704 220 11.787C220.008 12.6664 219.801 13.5344 219.395 14.3147C219.018 15.0566 218.452 15.6858 217.753 16.1384C217.066 16.582 216.264 16.8136 215.446 16.8044H215.449ZM215.596 16.0828C215.988 16.104 216.379 16.0135 216.723 15.8218C217.066 15.6301 217.348 15.3451 217.536 14.9997C217.977 14.1734 218.192 13.2455 218.16 12.3096C218.19 11.2289 217.957 10.1572 217.482 9.18615C217.31 8.79302 217.025 8.45975 216.664 8.22843C216.302 7.99711 215.88 7.8781 215.451 7.88644C215.047 7.86851 214.646 7.96163 214.291 8.15567C213.936 8.34972 213.641 8.63727 213.438 8.9871C212.964 9.80867 212.729 10.7467 212.761 11.6948C212.754 12.4247 212.859 13.1513 213.072 13.8493C213.25 14.4584 213.579 15.0124 214.03 15.4593C214.235 15.6616 214.479 15.8209 214.747 15.9279C215.015 16.035 215.301 16.0876 215.59 16.0828H215.596Z" fill="#D0D0D0"/>
</svg>
