<svg width="152" height="17" viewBox="0 0 152 17" fill="none" xmlns="http://www.w3.org/2000/svg">
<path d="M5.84497 15.4615C6.08285 15.4849 6.32278 15.4476 6.54228 15.3529C6.76179 15.2583 6.95367 15.1095 7.09997 14.9205C7.31907 14.4409 7.41628 13.9147 7.38297 13.3885V12.6885L7.40597 10.1205L3.46997 3.9285C2.91247 3.16004 2.49755 2.29767 2.24497 1.3825L0.844971 1.4275V0.436497H6.68097V1.1795C5.50497 1.1795 4.91697 1.50983 4.91697 2.1705C4.96747 2.70186 5.1633 3.20906 5.48297 3.6365L6.18297 4.7365C7.14764 6.2985 7.9843 7.5675 8.69297 8.5435H8.73797C9.2653 7.5075 10.072 5.97416 11.158 3.9435L11.633 3.0645C11.9295 2.45508 12.2935 1.88083 12.718 1.3525L10.932 1.4205V0.436497H15.545V1.1795C14.8869 1.20364 14.2585 1.45893 13.77 1.9005C13.1437 2.54433 12.6212 3.28143 12.221 4.0855L9.37197 9.4465C9.35664 10.1798 9.3453 10.9608 9.33797 11.7895C9.33064 12.6182 9.33297 13.1965 9.34497 13.5245C9.35353 14.1186 9.33083 14.7128 9.27697 15.3045L11.154 15.2145V16.2055H5.84497V15.4615ZM21.38 16.5615C21.2045 16.563 21.0308 16.5265 20.8708 16.4545C20.7108 16.3825 20.5683 16.2768 20.453 16.1445C20.1964 15.8658 20.0587 15.4981 20.069 15.1195C20.0619 14.7352 20.2055 14.3634 20.469 14.0835C20.5853 13.9489 20.7294 13.841 20.8913 13.7671C21.0531 13.6932 21.229 13.6552 21.407 13.6555C21.5854 13.6521 21.7623 13.6888 21.9246 13.7628C22.087 13.8369 22.2306 13.9465 22.345 14.0835C22.5942 14.3702 22.7272 14.7397 22.718 15.1195C22.7222 15.3083 22.689 15.496 22.6203 15.6719C22.5517 15.8479 22.4489 16.0085 22.318 16.1445C22.2003 16.2772 22.0557 16.3834 21.8938 16.456C21.7319 16.5286 21.5564 16.5659 21.379 16.5655L21.38 16.5615ZM31.533 15.4615C31.7709 15.4849 32.0108 15.4476 32.2303 15.3529C32.4498 15.2583 32.6417 15.1095 32.788 14.9205C33.0071 14.4409 33.1043 13.9147 33.071 13.3885V12.6885L33.094 1.2675L30.765 1.2905C30.3787 1.25567 29.9901 1.32386 29.6388 1.4881C29.2875 1.65235 28.986 1.90679 28.765 2.2255C28.2995 3.13995 28.092 4.16398 28.165 5.1875H27.328L27.464 0.434498H40.645L40.781 5.1875H39.922C39.931 4.42347 39.8358 3.66178 39.639 2.9235C39.5023 2.41256 39.19 1.9661 38.757 1.6625C38.2187 1.35316 37.6017 1.2082 36.982 1.2455H35.059L35.036 13.5225C35.0445 14.1166 35.0218 14.7108 34.968 15.3025L36.845 15.2125V16.2035H31.532L31.533 15.4615Z" fill="#D0D0D0"/>
<path d="M51.855 14.3635C51.9482 14.3727 52.0423 14.3614 52.1308 14.3305C52.2192 14.2996 52.2998 14.2498 52.367 14.1845C52.4723 14.0593 52.535 13.9038 52.546 13.7405C52.5627 13.5638 52.575 13.2698 52.583 12.8585L52.608 6.9015C52.6028 6.63395 52.6192 6.36641 52.657 6.1015L51.781 6.1505V5.6325C52.1164 5.64673 52.4522 5.61986 52.781 5.5525C52.948 5.507 53.1007 5.41997 53.225 5.2995H53.595C53.6277 5.6995 53.644 5.9215 53.644 5.9655C53.9052 5.73444 54.2061 5.55251 54.532 5.4285C54.8577 5.29792 55.2051 5.23006 55.556 5.2285C56.0304 5.22556 56.496 5.35584 56.9 5.6045C57.3215 5.86633 57.6646 6.23702 57.893 6.6775C58.1514 7.17412 58.2808 7.72778 58.269 8.2875C58.2808 8.92057 58.1321 9.54632 57.837 10.1065C57.5698 10.615 57.1718 11.0431 56.684 11.3465C56.2163 11.6387 55.6755 11.7926 55.124 11.7905C54.6014 11.803 54.0867 11.6614 53.644 11.3835V13.4235C53.65 13.704 53.6336 13.9846 53.595 14.2625L54.372 14.2255V14.7315H51.855V14.3635ZM55.095 11.2895C55.4624 11.2962 55.8196 11.1689 56.1 10.9315C56.4045 10.6623 56.6322 10.3173 56.76 9.9315C56.9227 9.46397 57.0019 8.97147 56.994 8.4765C57.0149 7.81739 56.8504 7.16565 56.519 6.5955C56.3765 6.35031 56.1695 6.14883 55.9206 6.01291C55.6717 5.877 55.3903 5.81184 55.107 5.8245C54.8317 5.82629 54.5609 5.89493 54.318 6.0245C54.0702 6.15074 53.8451 6.31735 53.652 6.5175C53.66 6.57483 53.664 6.8255 53.664 7.2695L53.655 10.8085C54.0671 11.1264 54.5745 11.2959 55.095 11.2895ZM61.669 11.2155C61.7631 11.2242 61.858 11.2128 61.9473 11.1819C62.0367 11.1511 62.1184 11.1015 62.187 11.0365C62.2986 10.9066 62.3655 10.7443 62.378 10.5735C62.3987 10.3842 62.409 10.0965 62.409 9.7105V3.8765C62.4069 3.60936 62.4193 3.3423 62.446 3.0765L61.57 3.1255V2.6075C61.9238 2.62071 62.278 2.59184 62.625 2.5215C62.8048 2.47931 62.9718 2.39461 63.112 2.2745H63.47V6.0365C63.764 5.79421 64.0922 5.59674 64.444 5.4505C64.7746 5.30518 65.1309 5.22765 65.492 5.2225C65.7841 5.1973 66.0778 5.24495 66.3469 5.36119C66.616 5.47742 66.8521 5.6586 67.034 5.8885C67.4046 6.52345 67.5764 7.25495 67.527 7.9885L67.539 10.2825C67.545 10.563 67.5286 10.8436 67.49 11.1215L68.267 11.0845V11.5905H65.755V11.2205C65.8482 11.2297 65.9423 11.2184 66.0308 11.1875C66.1192 11.1566 66.1998 11.1068 66.267 11.0415C66.374 10.9121 66.4386 10.7529 66.452 10.5855C66.4727 10.4002 66.483 10.1102 66.483 9.7155V7.9845C66.5194 7.43563 66.4042 6.88731 66.15 6.3995C66.0382 6.2264 65.8819 6.08648 65.6976 5.99431C65.5133 5.90215 65.3076 5.86112 65.102 5.8755C64.7872 5.8779 64.4771 5.95176 64.195 6.0915C63.9166 6.21861 63.6699 6.40616 63.473 6.6405V10.2795C63.4759 10.5604 63.4552 10.8411 63.411 11.1185L64.188 11.0815V11.5875H61.669V11.2155ZM74.706 11.7825C74.1599 11.7882 73.622 11.6502 73.146 11.3825C72.6768 11.1187 72.2885 10.7318 72.023 10.2635C71.7436 9.77134 71.601 9.21337 71.61 8.6475C71.6017 8.04139 71.7415 7.44241 72.017 6.9025C72.2717 6.39886 72.6572 5.97299 73.133 5.6695C73.6027 5.37027 74.1491 5.21393 74.706 5.2195C75.2555 5.21486 75.7963 5.35746 76.272 5.6325C76.7426 5.90183 77.1325 6.29238 77.401 6.7635C77.6783 7.24744 77.8209 7.7968 77.814 8.3545C77.8199 8.95531 77.6781 9.54836 77.401 10.0815C77.1432 10.5884 76.7562 11.0182 76.279 11.3275C75.8106 11.63 75.2636 11.7882 74.706 11.7825ZM74.806 11.2895C75.0744 11.3039 75.3413 11.2421 75.576 11.1112C75.8106 10.9802 76.0034 10.7855 76.132 10.5495C76.4321 9.98465 76.578 9.35069 76.555 8.7115C76.5755 7.97319 76.4166 7.24093 76.092 6.5775C75.9743 6.3089 75.7796 6.0812 75.5326 5.92316C75.2855 5.76511 74.9972 5.6838 74.704 5.6895C74.428 5.67725 74.1539 5.74087 73.9115 5.87345C73.6691 6.00602 73.4676 6.20249 73.329 6.4415C73.0049 7.00282 72.8445 7.64369 72.866 8.2915C72.8629 8.79043 72.9365 9.28688 73.084 9.7635C73.2053 10.1796 73.4304 10.5581 73.738 10.8635C73.8787 11.0018 74.0454 11.1107 74.2286 11.1839C74.4118 11.257 74.6078 11.2929 74.805 11.2895H74.806ZM83.649 11.7825C82.5223 11.7825 81.9633 11.0262 81.972 9.5135L81.997 5.9365L81.047 5.9485V5.4185C81.2447 5.41291 81.4383 5.3615 81.6127 5.26831C81.7871 5.17512 81.9375 5.04271 82.052 4.8815C82.3299 4.52759 82.5374 4.12361 82.663 3.6915H83.082V5.4185H85.155V5.8995L83.083 5.9245C83.075 7.1825 83.0687 8.05417 83.064 8.5395C83.0593 9.02483 83.0563 9.29617 83.055 9.3535C83.0304 9.79691 83.102 10.2404 83.265 10.6535C83.329 10.7898 83.4328 10.9036 83.5628 10.9796C83.6928 11.0557 83.8428 11.0905 83.993 11.0795C84.2194 11.0749 84.4398 11.0055 84.628 10.8795C84.8469 10.7388 85.034 10.5539 85.177 10.3365L85.51 10.6075C85.2791 10.9981 84.9521 11.3231 84.56 11.5515C84.2777 11.6972 83.9667 11.7762 83.649 11.7825ZM91.629 11.7825C91.0829 11.7882 90.545 11.6502 90.069 11.3825C89.5994 11.1189 89.2107 10.7319 88.945 10.2635C88.6656 9.77134 88.523 9.21337 88.532 8.6475C88.5238 8.04139 88.6634 7.44241 88.939 6.9025C89.194 6.3996 89.5794 5.97444 90.055 5.6715C90.5247 5.37227 91.0711 5.21593 91.628 5.2215C92.1775 5.21686 92.7183 5.35946 93.194 5.6345C93.6644 5.90328 94.0542 6.29312 94.323 6.7635C94.6003 7.24744 94.7429 7.7968 94.736 8.3545C94.7419 8.95531 94.6001 9.54836 94.323 10.0815C94.0652 10.5884 93.6782 11.0182 93.201 11.3275C92.7326 11.63 92.1866 11.7882 91.629 11.7825ZM91.729 11.2895C91.9973 11.3039 92.2643 11.2421 92.499 11.1112C92.7336 10.9802 92.9264 10.7855 93.055 10.5495C93.3561 9.98494 93.5031 9.35096 93.481 8.7115C93.5015 7.97319 93.3426 7.24093 93.018 6.5775C92.9003 6.3089 92.7056 6.0812 92.4586 5.92316C92.2115 5.76511 91.9232 5.6838 91.63 5.6895C91.3539 5.67735 91.0797 5.74112 90.8373 5.87388C90.5949 6.00664 90.3935 6.2033 90.255 6.4425C89.9309 7.00382 89.7705 7.64469 89.792 8.2925C89.7877 8.79089 89.8599 9.28699 90.006 9.7635C90.1273 10.1796 90.3524 10.5581 90.66 10.8635C90.8006 11.0018 90.9674 11.1107 91.1506 11.1839C91.3338 11.257 91.5298 11.2929 91.727 11.2895H91.729ZM106.493 11.7825C106.133 11.7866 105.776 11.7346 105.432 11.6285C105.14 11.5389 104.861 11.4079 104.606 11.2395L104.655 11.6715H104.135L104.061 9.5505H104.443C104.454 9.86986 104.55 10.1805 104.721 10.4505C104.887 10.7111 105.116 10.9254 105.387 11.0735C105.657 11.2239 105.96 11.3024 106.269 11.3015C106.601 11.3074 106.928 11.2197 107.213 11.0485C107.341 10.9776 107.448 10.8727 107.521 10.7454C107.594 10.6181 107.63 10.4731 107.626 10.3265C107.634 10.1151 107.562 9.90834 107.426 9.7465C107.284 9.5853 107.112 9.45319 106.92 9.3575C106.72 9.25483 106.438 9.1335 106.075 8.9935C105.716 8.86289 105.366 8.70821 105.027 8.5305C104.762 8.38506 104.531 8.18537 104.349 7.9445C104.152 7.67272 104.052 7.34281 104.065 7.0075C104.069 6.72445 104.137 6.44598 104.265 6.1935C104.415 5.90293 104.646 5.66266 104.931 5.5025C105.313 5.29644 105.744 5.19826 106.177 5.2185C106.443 5.22011 106.707 5.26157 106.96 5.3415C107.233 5.42689 107.486 5.56519 107.706 5.7485L107.681 5.2795H108.199V7.4375H107.804C107.79 6.98886 107.637 6.5557 107.366 6.1975C107.234 6.02522 107.063 5.88751 106.866 5.79623C106.669 5.70495 106.454 5.66283 106.237 5.6735C105.919 5.6566 105.606 5.75535 105.355 5.9515C105.254 6.02944 105.172 6.12939 105.115 6.24375C105.059 6.35811 105.029 6.48388 105.028 6.6115C105.023 6.83139 105.1 7.04529 105.244 7.2115C105.396 7.38237 105.578 7.52432 105.781 7.6305C106.061 7.77502 106.349 7.90258 106.644 8.0125C106.999 8.15119 107.345 8.31183 107.68 8.4935C107.942 8.64057 108.171 8.84005 108.352 9.0795C108.541 9.33396 108.639 9.64463 108.63 9.9615C108.642 10.3187 108.537 10.6701 108.33 10.9615C108.128 11.2336 107.855 11.445 107.541 11.5725C107.208 11.7127 106.851 11.7841 106.49 11.7825H106.493ZM114.461 11.7825C113.334 11.7825 112.775 11.0262 112.784 9.5135L112.809 5.9365L111.859 5.9485V5.4185C112.057 5.41291 112.25 5.3615 112.425 5.26831C112.599 5.17512 112.75 5.04271 112.864 4.8815C113.142 4.52759 113.349 4.12361 113.475 3.6915H113.894V5.4185H115.966V5.8995L113.894 5.9245C113.886 7.1825 113.88 8.05417 113.876 8.5395C113.872 9.02483 113.87 9.29617 113.87 9.3535C113.845 9.79691 113.917 10.2404 114.08 10.6535C114.144 10.7898 114.248 10.9036 114.378 10.9796C114.508 11.0557 114.658 11.0905 114.808 11.0795C115.034 11.0749 115.255 11.0055 115.443 10.8795C115.662 10.7388 115.849 10.5539 115.992 10.3365L116.325 10.6075C116.094 10.9981 115.767 11.3231 115.375 11.5515C115.09 11.6984 114.775 11.7775 114.455 11.7825H114.461ZM121.985 11.7825C121.7 11.8076 121.413 11.7665 121.147 11.6625C120.88 11.5584 120.641 11.3941 120.449 11.1825C120.062 10.5584 119.889 9.82564 119.955 9.0945V6.8945C119.95 6.62695 119.966 6.35941 120.004 6.0945L119.153 6.1315V5.6255H119.535C119.781 5.63544 120.026 5.60642 120.263 5.5395C120.418 5.48716 120.561 5.40304 120.682 5.2925H121.04V9.0545C121.002 9.60175 121.106 10.1495 121.34 10.6455C121.445 10.8162 121.596 10.9542 121.775 11.0439C121.955 11.1336 122.155 11.1716 122.355 11.1535C122.673 11.1496 122.983 11.0556 123.249 10.8825C123.532 10.7105 123.774 10.4791 123.958 10.2045V7.0345C123.953 6.721 123.974 6.40761 124.02 6.0975L123.132 6.1345V5.6285H123.514C123.76 5.63844 124.005 5.60942 124.242 5.5425C124.397 5.49016 124.54 5.40604 124.661 5.2955H125.019L125.007 9.9575C125.01 10.3445 124.993 10.7314 124.955 11.1165L125.843 11.0675V11.5855H124.079C124.038 11.3308 124.009 11.0842 123.993 10.8455C123.716 11.1208 123.395 11.3479 123.043 11.5175C122.714 11.6861 122.351 11.7768 121.982 11.7825H121.985ZM131.852 11.7825C131.368 11.79 130.893 11.6573 130.483 11.4005C130.071 11.1352 129.741 10.7592 129.533 10.3155C129.293 9.80267 129.175 9.24143 129.188 8.6755C129.178 8.05933 129.318 7.44998 129.595 6.8995C129.848 6.39102 130.238 5.96306 130.721 5.6635C131.213 5.3645 131.779 5.21059 132.355 5.2195C132.619 5.21921 132.882 5.25282 133.138 5.3195C133.366 5.3751 133.588 5.45593 133.798 5.5605V3.8705C133.796 3.60336 133.808 3.3363 133.835 3.0705L132.959 3.1195V2.6015C133.309 2.61435 133.658 2.58548 134.001 2.5155C134.181 2.47331 134.348 2.38861 134.488 2.2685H134.846V10.2685C134.845 10.5489 134.829 10.8289 134.797 11.1075L135.673 11.0585V11.5765H133.909C133.869 11.3645 133.841 11.1505 133.823 10.9355C133.581 11.2014 133.284 11.4118 132.953 11.5525C132.605 11.7048 132.229 11.7831 131.849 11.7825H131.852ZM132.296 11.1825C132.58 11.1768 132.859 11.0983 133.104 10.9545C133.374 10.808 133.612 10.6088 133.804 10.3685C133.796 10.2352 133.792 10.0092 133.792 9.6905L133.804 6.1385C133.408 5.8474 132.927 5.69552 132.435 5.7065C132.154 5.70123 131.877 5.7655 131.627 5.89358C131.378 6.02165 131.163 6.20955 131.004 6.4405C130.617 7.01028 130.424 7.69017 130.455 8.3785C130.423 9.0865 130.589 9.78943 130.936 10.4075C131.071 10.6471 131.269 10.8454 131.508 10.9812C131.747 11.117 132.018 11.1852 132.293 11.1785L132.296 11.1825ZM140.276 4.0825C140.189 4.08177 140.103 4.06206 140.024 4.02476C139.945 3.98746 139.876 3.93346 139.82 3.8665C139.689 3.72824 139.618 3.54465 139.62 3.3545C139.617 3.16247 139.689 2.97683 139.82 2.8365C139.877 2.76827 139.947 2.7131 140.027 2.67478C140.107 2.63646 140.194 2.61589 140.283 2.6145C140.373 2.61306 140.463 2.63169 140.545 2.66905C140.627 2.70641 140.7 2.76155 140.758 2.8305C140.886 2.97481 140.954 3.16199 140.949 3.3545C140.953 3.54488 140.881 3.72894 140.749 3.8665C140.689 3.93287 140.615 3.98572 140.533 4.02158C140.451 4.05743 140.363 4.07547 140.273 4.0745L140.276 4.0825ZM139.055 11.2155C139.148 11.2247 139.242 11.2134 139.331 11.1825C139.419 11.1516 139.5 11.1018 139.567 11.0365C139.674 10.9071 139.739 10.7479 139.752 10.5805C139.773 10.3952 139.783 10.1052 139.783 9.7105V6.8985C139.785 6.63114 139.801 6.36407 139.832 6.0985L138.956 6.1475V5.6295C139.306 5.64235 139.655 5.61348 139.998 5.5435C140.178 5.50131 140.345 5.41661 140.485 5.2965H140.843V10.2795C140.849 10.56 140.833 10.8406 140.794 11.1185L141.571 11.0815V11.5875H139.055V11.2155ZM148.046 11.7825C147.5 11.7882 146.962 11.6502 146.486 11.3825C146.016 11.119 145.627 10.7321 145.361 10.2635C145.082 9.77134 144.939 9.21337 144.948 8.6475C144.94 8.04206 145.08 7.44381 145.355 6.9045C145.61 6.40086 145.995 5.97499 146.471 5.6715C146.941 5.37227 147.487 5.21593 148.044 5.2215C148.594 5.21686 149.134 5.35946 149.61 5.6345C150.08 5.90328 150.47 6.29312 150.739 6.7635C151.017 7.24714 151.161 7.79653 151.155 8.3545C151.161 8.95531 151.019 9.54836 150.742 10.0815C150.484 10.5884 150.097 11.0182 149.62 11.3275C149.151 11.6306 148.603 11.7888 148.044 11.7825H148.046ZM148.146 11.2895C148.414 11.3039 148.681 11.2421 148.916 11.1112C149.151 10.9802 149.343 10.7855 149.472 10.5495C149.773 9.98494 149.92 9.35096 149.898 8.7115C149.918 7.97319 149.76 7.24093 149.435 6.5775C149.317 6.3089 149.123 6.0812 148.876 5.92316C148.629 5.76511 148.34 5.6838 148.047 5.6895C147.771 5.67725 147.497 5.74087 147.254 5.87345C147.012 6.00602 146.811 6.20249 146.672 6.4415C146.348 7.00282 146.188 7.64369 146.209 8.2915C146.204 8.79017 146.276 9.28661 146.422 9.7635C146.543 10.1796 146.768 10.5581 147.076 10.8635C147.217 11.0017 147.383 11.1105 147.566 11.1837C147.749 11.2568 147.945 11.2928 148.142 11.2895H148.146Z" fill="#D0D0D0"/>
</svg>
